<?xml version="1.0" encoding="UTF-8" standalone="no"?>
<!-- Created with Inkscape (http://www.inkscape.org/) -->

<svg
   width="110.93757mm"
   height="29.962132mm"
   viewBox="0 0 110.93757 29.962131"
   version="1.1"
   id="svg1"
   xml:space="preserve"
   xmlns="http://www.w3.org/2000/svg"
   xmlns:svg="http://www.w3.org/2000/svg"><defs
     id="defs1"><rect
       x="164.90913"
       y="251.35722"
       width="373.51212"
       height="263.57272"
       id="rect38" /><rect
       x="164.90913"
       y="251.35722"
       width="373.51212"
       height="263.57272"
       id="rect44" /></defs><g
     id="layer1"
     transform="translate(5.7134503,45.180204)"><g
       id="g38"
       transform="matrix(0.56619118,0,0,0.56619118,-6.5545817,-77.975946)"><path
         id="path22"
         style="fill:#000000;stroke-width:0.396587"
         d="m 20.572388,66.599552 c -0.694042,-0.03511 -0.959614,-1.07e-4 -1.475879,0.194304 -1.221394,0.459941 -2.314645,1.88051 -2.739885,3.560506 -0.133626,0.527926 -0.159807,0.966847 -0.114721,1.941484 0.0851,1.839647 0.548281,3.063157 1.604553,4.237984 0.508963,0.566091 0.550399,0.686875 0.283704,0.836124 -0.149021,0.0834 -0.08053,0.149125 0.405659,0.387574 l 0.585494,0.287321 -0.625801,0.312642 c -0.47694,0.238334 -0.735477,0.461934 -1.087789,0.940511 -0.254272,0.345398 -0.462504,0.670134 -0.462504,0.721403 0,0.05127 0.227438,-0.06993 0.504879,-0.269234 0.27743,-0.199321 0.830106,-0.508615 1.228348,-0.687297 l 0.723987,-0.324528 -0.629419,0.660942 c -0.346247,0.363667 -0.853931,0.955683 -1.128096,1.315165 -0.55492,0.727617 -1.853634,2.827533 -1.853634,2.997233 0,0.05995 -0.02575,0.0838 -0.05684,0.05271 -0.05288,-0.05288 0.252173,-1.255305 0.431498,-1.701188 0.15031,-0.373732 -0.163036,-0.06484 -0.783931,0.772563 -0.680094,0.917245 -1.359066,2.236066 -1.69447,3.291272 -0.124929,0.393036 -0.242686,0.698858 -0.261483,0.680061 -0.01882,-0.01881 0.01161,-0.411503 0.06718,-0.872298 0.205504,-1.703985 0.841497,-3.41599 1.783354,-4.798673 0.226047,-0.331843 0.36964,-0.603581 0.318844,-0.603581 -0.0508,0 -0.380699,0.230784 -0.733289,0.51263 -0.480235,0.383884 -0.765531,0.531363 -1.136882,0.587045 -0.832794,0.124885 -2.196141,0.558653 -3.142443,0.999939 -0.494409,0.230554 -0.922615,0.419095 -0.9523971,0.419095 -0.098373,0 -1.4935939,0.954952 -1.5657959,1.07177 -0.038896,0.06292 -0.025081,0.08634 0.031006,0.05168 0.1585221,-0.09797 1.6881587,-0.49464 1.8960083,-0.491443 0.1020567,0.0015 -0.038894,0.118255 -0.313676,0.259416 -0.2747855,0.141156 -0.6585604,0.364717 -0.8526611,0.49661 -0.3807927,0.258757 -1.3234334,1.102867 -1.3234334,1.184941 0,0.02758 0.2240341,-0.109901 0.4981608,-0.304891 0.2741314,-0.194985 0.7107795,-0.46136 0.9704834,-0.592729 0.4906389,-0.248186 1.897837,-0.652394 1.981274,-0.568957 0.05635,0.05635 0.103941,0.02532 -0.617016,0.400492 -2.1498017,1.118731 -3.9256702,3.010357 -5.2508425,5.592424 -0.2915929,0.568154 -0.5086721,0.938633 -0.4821411,0.823205 0.023377,-0.101733 0.065942,-0.329439 0.1002523,-0.526066 -0.022705,0.0349 -0.02348,0.0356 -0.053227,0.0832 -0.020679,0.02804 -0.041499,0.05607 -0.062012,0.08423 -0.013738,0.01923 -0.017626,0.02471 -0.026355,0.03721 -0.030821,0.04414 -0.2393499,0.33462 -0.1121378,0.155546 -0.06301,0.101979 -0.1319971,0.199639 -0.2041219,0.295072 1.024e-4,0.01071 -6.153e-4,0.03113 -0.00207,0.05064 -0.00934,0.128682 -0.0099,0.257666 -0.014986,0.38654 -0.00224,0.105439 -0.00469,0.210822 -0.00672,0.31626 -0.00153,0.07242 -0.00267,0.145131 -0.00413,0.217557 0.00646,0.01346 0.019473,0.04659 0.029456,0.06976 0.053388,0.123958 0.1048613,0.246391 0.1550293,0.37207 0.014645,0.03834 0.028173,0.07726 0.042375,0.115755 0.08484,0.159807 0.133346,0.246088 0.1508952,0.281637 0.073678,0.174706 0.088674,0.22204 0.1142049,0.287321 0.089865,0.191401 0.1644912,0.388665 0.2315105,0.589111 0.00624,0.01866 0.015653,0.03604 0.021704,0.05478 0.015848,0.04907 0.062176,0.196341 0.043408,0.148311 -0.025903,-0.06629 -0.043372,-0.135318 -0.065112,-0.203088 0.074031,0.20427 0.1409066,0.410934 0.1943033,0.621668 0.013874,0.05475 -0.033238,-0.108398 -0.046509,-0.163298 -0.00601,-0.02486 0.016635,0.04862 0.024805,0.07286 0.080395,0.212842 0.1480877,0.429704 0.2118734,0.648022 0.061923,0.198767 0.1069434,0.401766 0.1483114,0.605648 0.061437,0.292066 0.081658,0.590783 0.093018,0.888318 0.00726,0.279872 0.01467,0.559808 0.01912,0.839742 10e-4,0.04282 0.00201,0.08534 0.0031,0.128157 0.00305,0.120422 0.0063,0.240746 0.00672,0.361219 6e-4,0.175939 7.394e-4,0.178544 -0.00155,0.112654 0.039972,0.302135 0.00886,0.619856 0.065629,0.919841 1.4957442,2.071354 3.2585793,3.851454 5.253426,5.269964 3.796282,2.69948 8.441333,4.34609 13.063803,4.63021 0.548252,0.0337 1.020161,0.0846 1.049031,0.11317 0.04906,0.0486 2.199347,-0.0385 3.252515,-0.13177 0.259699,-0.023 0.826524,-0.0704 1.259354,-0.10491 4.08965,-0.3267 8.884848,-2.19615 11.962061,-4.66379 l 0.262516,-0.21033 -0.28422,-0.002 c -0.156414,-0.002 -1.189985,0.40213 -2.296501,0.89659 -4.46768,1.99643 -7.820454,2.8158 -12.03079,2.94091 -2.570228,0.0764 -4.887123,-0.12319 -7.004224,-0.60358 -1.131561,-0.25677 -2.526209,-0.64107 -2.675805,-0.73743 -0.120236,-0.0775 -0.107607,-0.0856 0.05271,-0.0331 0.602839,0.19761 3.538807,0.29627 5.302518,0.17777 2.160175,-0.14512 2.74818,-0.2314 4.393014,-0.64337 1.555162,-0.38952 2.364777,-0.67383 5.653402,-1.98593 4.915018,-1.961 6.566789,-2.32283 10.625708,-2.32751 2.342291,-0.003 3.690011,0.1431 5.451863,0.5886 0.08362,0.0211 0.09545,0.0162 0.120406,0.016 -0.02008,-0.0193 -0.03843,-0.0458 -0.05271,-0.0801 -0.03837,-0.0302 -0.04284,-0.04 -0.120406,-0.0956 -0.996221,-0.71444 -3.112395,-1.6028 -4.655013,-1.953891 -1.512049,-0.344133 -2.193543,-0.411344 -4.158919,-0.411344 -3.14175,0 -4.524915,0.255919 -7.979358,1.475885 -5.392057,1.90422 -6.410949,2.14329 -9.334314,2.1947 -2.882996,0.0507 -4.585683,-0.17514 -7.134965,-0.9462 -4.017748,-1.21539 -6.9611031,-3.142484 -9.2986575,-6.089037 -0.317636,-0.400388 -0.659175,-0.869693 -0.7591268,-1.042831 -0.1592238,-0.275809 -0.1458218,-0.269073 0.1085206,0.05271 0.6321758,0.799783 2.3376441,2.475676 3.2075561,3.152262 1.9812116,1.540904 4.7747936,2.845036 7.2853436,3.400826 2.145064,0.47488 5.205083,0.7917 5.437911,0.56276 0.11279,-0.11092 -0.222949,-1.01712 -0.655257,-1.76888 -0.544359,-0.946684 -2.081029,-2.44664 -3.095418,-3.021012 -1.28858,-0.729617 -2.726115,-1.147657 -4.067452,-1.182873 l -0.471806,-0.01189 0.576709,-0.146761 c 0.682683,-0.17313 2.334134,-0.194753 3.148128,-0.04134 2.857036,0.538387 5.215048,2.533583 6.468856,5.473566 l 0.297656,0.69815 0.577743,-0.0501 c 1.182695,-0.10297 3.906795,-0.73588 4.100008,-0.9524 0.03876,-0.0434 0.166142,-0.36222 0.283187,-0.70848 0.11704,-0.34628 0.287791,-0.801906 0.378788,-1.012854 l 0.164848,-0.38344 -0.819589,0.411345 c -0.779724,0.39152 -2.621548,0.941699 -3.096968,0.924999 -0.12245,-0.004 0.08427,-0.11581 0.459403,-0.24753 1.630494,-0.572485 3.894877,-1.972145 4.554761,-2.815323 l 0.259933,-0.33228 0.38964,0.186036 0.389123,0.185518 -0.44235,0.450618 -0.44235,0.450619 0.322461,0.133842 c 0.388976,0.161127 1.017331,0.07915 1.575614,-0.205672 1.651089,-0.842325 1.503247,-3.419613 -0.225826,-3.933094 -0.701029,-0.208179 -1.124066,-0.117558 -2.445845,0.523999 -1.563574,0.758924 -2.183739,0.924368 -3.254582,0.868164 -0.66889,-0.03511 -0.995276,-0.110985 -1.465544,-0.341064 -0.592949,-0.290103 -2.047937,-1.548044 -2.047937,-1.770435 0,-0.06204 0.153503,0.03336 0.341065,0.211357 0.982273,0.932164 3.223306,1.445138 4.494299,1.028878 1.107242,-0.362635 1.596592,-0.687141 2.614828,-1.732194 0.870015,-0.89293 1.13006,-1.089875 2.04587,-1.551327 1.00288,-0.505319 1.702465,-0.951239 1.29191,-0.823205 -0.795485,0.24808 -1.237505,0.308989 -2.288749,0.315226 -1.09285,0.0065 -1.275751,-0.02085 -1.940967,-0.290938 -0.739371,-0.300217 -1.456721,-0.686817 -1.393196,-0.750342 0.01883,-0.01883 0.316042,0.06104 0.660941,0.176733 0.438419,0.147062 1.037437,0.227923 1.991093,0.269751 1.196866,0.05249 1.466697,0.03175 2.200383,-0.170015 0.459904,-0.126472 0.987175,-0.301929 1.172021,-0.389641 0.253304,-0.120199 0.388633,-0.131169 0.54777,-0.04599 0.261517,0.139976 0.961681,0.14691 1.314132,0.01292 0.427072,-0.162375 1.076853,-0.814582 1.313615,-1.318266 0.174783,-0.371836 0.220142,-0.671809 0.220142,-1.459343 0,-1.574499 -0.402257,-3.121323 -1.3224,-5.084961 -0.253768,-0.541554 -0.460954,-0.99699 -0.460954,-1.012341 0,-0.01534 0.168617,-0.02842 0.375171,-0.02842 0.655735,0 1.198376,-0.717268 1.198376,-1.584399 0,-0.557281 -0.156109,-0.937869 -0.552938,-1.349272 -0.768191,-0.7964 -1.817052,-0.596972 -2.496488,0.47439 -0.364923,0.575416 -0.380104,0.539729 -0.09405,-0.224793 0.248296,-0.663625 0.900238,-1.32395 1.307414,-1.32395 0.144105,0 0.262516,-0.04188 0.262516,-0.09302 0,-0.216345 -0.928084,-1.455879 -1.703255,-2.274796 -1.252959,-1.323663 -2.560948,-2.23653 -3.963583,-2.76779 l -0.576709,-0.219108 0.31471,0.236678 c 0.508384,0.38191 1.206645,1.044626 1.206645,1.14515 0,0.05109 -0.20069,-0.03362 -0.445968,-0.188619 -1.153877,-0.729299 -2.703327,-1.262925 -3.960999,-1.363741 l -0.787548,-0.06305 -0.0026,1.141532 c -0.0023,0.863435 -0.04673,1.231136 -0.183452,1.508952 l -0.180867,0.366902 0.05736,-0.394291 c 0.150807,-1.035127 -0.463791,-3.44153 -1.184424,-4.636926 -0.54232,-0.899602 -1.536936,-1.900382 -2.327507,-2.342493 -0.585647,-0.327513 -0.789209,-0.384076 -1.522387,-0.421163 z m 16.680635,0.409278 c -0.892185,0.071 -1.842558,0.666256 -2.695959,1.83658 -0.495928,0.680093 -1.02152,1.80557 -1.260905,2.700611 -0.0998,0.373134 -0.170893,0.476971 -0.293006,0.428914 -0.209484,-0.08245 -1.254546,-0.256022 -1.524971,-0.253215 -0.116925,0.0012 0.129408,0.182543 0.556555,0.409278 1.606636,0.852808 3.055054,2.193933 4.350639,4.029211 0.332777,0.471403 0.694998,0.963106 0.805119,1.092957 0.247363,0.291682 0.446047,0.296359 1.012341,0.02222 1.746728,-0.845582 2.784859,-3.761182 2.30942,-6.485909 C 40.065441,68.228815 38.740002,66.8905 37.253023,67.00883 Z m -17.242875,0.758093 c 0.31178,0.01301 0.626226,0.121303 0.975651,0.326078 1.244489,0.729323 1.967481,2.211113 1.949752,3.994589 -0.01053,1.059234 -0.211313,1.834247 -0.794784,3.065962 -0.253183,0.534481 -0.475423,0.971732 -0.49351,0.971517 -0.01809,-2.13e-4 -0.03504,-0.465161 -0.03824,-1.033012 -0.0051,-0.910556 -0.04059,-1.102837 -0.299207,-1.631425 -0.161275,-0.329636 -0.453766,-0.809562 -0.649572,-1.066084 -0.195811,-0.256526 -0.320923,-0.465507 -0.27802,-0.464572 0.221379,0.0049 0.939914,0.515686 1.137399,0.808737 0.124251,0.184369 0.255288,0.305918 0.291455,0.269751 0.125992,-0.125989 0.06242,-1.976241 -0.08733,-2.538864 -0.330377,-1.241327 -1.164566,-2.094931 -2.138371,-2.188496 -0.352966,-0.03391 -0.630216,0.0035 -0.854212,0.115238 -0.226436,0.112969 -0.31906,0.125299 -0.293005,0.03876 0.02098,-0.06972 0.295441,-0.26039 0.610299,-0.42323 0.340293,-0.175996 0.649919,-0.257957 0.961698,-0.244946 z m 17.702796,0.383956 c 0.354893,0 0.500692,0.06748 0.823205,0.382922 0.215565,0.210874 0.294117,0.30575 0.17415,0.210323 -0.119968,-0.09543 -0.398067,-0.174149 -0.617534,-0.174149 -0.560884,0 -1.224996,0.666811 -1.46451,1.470194 -0.214499,0.719511 -0.320757,1.852489 -0.222725,2.375049 0.07328,0.390609 0.0776,0.393458 0.249597,0.177767 0.199709,-0.250445 0.735379,-0.610793 0.804602,-0.541569 0.02546,0.02546 -0.09979,0.222506 -0.278019,0.438733 -0.656715,0.796704 -0.925938,2.196452 -0.559139,2.905766 0.08804,0.170269 0.140585,0.310058 0.117305,0.310058 -0.174363,0 -0.726142,-1.133358 -1.014925,-2.08411 -0.199494,-0.656769 -0.225204,-0.934809 -0.182418,-1.938383 0.05637,-1.322187 0.259002,-1.988719 0.833541,-2.742468 0.4439,-0.582365 0.795097,-0.790133 1.33687,-0.790133 z m -20.35483,4.039547 0.254248,0.95188 c 0.281398,1.051486 0.714007,1.98142 1.210778,2.603975 0.179024,0.224355 0.325562,0.425051 0.325562,0.445968 0,0.102405 -0.128107,-0.01143 -0.661975,-0.588078 -0.696937,-0.752781 -0.982504,-1.445315 -1.067635,-2.590023 z m 22.330936,0.355533 c 0.0099,0.01114 0.01533,0.05057 0.01654,0.116789 0.01706,0.93024 -0.452502,2.203499 -1.112077,3.01687 -0.198948,0.245342 -0.462884,0.500442 -0.587044,0.566891 -0.148221,0.07932 -0.08189,-0.04331 0.194303,-0.357084 0.558119,-0.634059 0.958826,-1.47707 1.254704,-2.639633 0.131397,-0.516296 0.203745,-0.737257 0.233577,-0.703833 z m -12.82764,3.842143 c 0.734454,0 0.909492,0.03859 1.401464,0.311092 0.841459,0.466068 1.462068,1.261614 1.856735,2.380217 0.173955,0.493043 0.11417,0.523142 -0.124024,0.06253 -0.09699,-0.187565 -0.275451,-0.476641 -0.396358,-0.642855 -0.341191,-0.469018 -1.490743,-1.293938 -2.072742,-1.487247 -0.747038,-0.248129 -1.773961,-0.17417 -2.48822,0.179317 l -0.553971,0.274402 0.273368,-0.285771 c 0.524176,-0.547122 1.174625,-0.791681 2.103748,-0.791683 z m -1.214913,1.626774 c 0.677461,-0.09304 1.164215,0.741619 0.590144,1.315682 -0.410355,0.410365 -0.905956,0.307476 -1.203027,-0.250114 -0.156592,-0.293913 0.0083,-0.801899 0.313676,-0.965315 0.10205,-0.05461 0.202426,-0.08696 0.299207,-0.100253 z m 10.237618,0.366903 c 0.05234,0.0069 0.105556,0.02327 0.158646,0.05168 0.236632,0.126642 0.28654,0.616233 0.08372,0.819072 -0.196655,0.196655 -0.589227,0.148496 -0.715719,-0.08785 -0.207822,-0.388333 0.106994,-0.830717 0.473357,-0.782898 z m -11.607044,0.564823 c 0.0442,0.02751 0.06787,0.218885 0.0708,0.573092 0.0059,0.720326 0.194708,1.177464 0.714685,1.730127 0.641581,0.681912 1.539857,0.948046 2.509924,0.744141 0.33353,-0.0701 0.631915,-0.16809 0.662492,-0.217558 0.03057,-0.04947 0.110661,-0.08992 0.178801,-0.08992 0.173859,0 -0.347155,0.466488 -0.760161,0.680062 -0.188938,0.0977 -0.586658,0.197777 -0.88315,0.222725 -0.500053,0.04205 -0.660049,0.0049 -1.544609,-0.3545 -0.366096,-0.148748 -0.866504,-0.662889 -1.077453,-1.107426 -0.195894,-0.412807 -0.223978,-1.193879 -0.06356,-1.771468 0.08345,-0.300454 0.148039,-0.43679 0.192236,-0.409278 z m 13.9361,0.836642 c -0.03678,-10e-4 -0.05478,0.118793 -0.05478,0.357084 0,0.631949 -0.275005,1.462513 -0.620634,1.873271 l -0.269751,0.320394 0.280087,1.119311 c 0.360174,1.441834 0.528226,3.156317 0.392224,4.000789 -0.05627,0.349385 -0.123965,0.670286 -0.150379,0.713135 -0.0264,0.04285 0.360512,0.08298 0.859896,0.08992 0.618461,0.0086 1.209349,0.09773 1.8526,0.278019 1.059583,0.296977 1.101225,0.305741 1.101225,0.239262 0,-0.139734 -2.059439,-0.682545 -2.739368,-0.721919 -0.787406,-0.04562 -0.882477,-0.118977 -0.597379,-0.462505 0.322251,-0.388281 2.496572,-0.511077 3.739823,-0.211356 0.760151,0.183254 0.740536,0.08736 -0.03566,-0.1757 -0.786903,-0.266692 -2.277421,-0.32978 -3.038575,-0.128674 -0.343808,0.09084 -0.640353,0.149779 -0.659391,0.130741 -0.01905,-0.01905 0.01882,-0.152946 0.08475,-0.297656 0.262738,-0.576649 1.805857,-1.02125 3.613217,-1.040764 l 1.259354,-0.01395 -0.839225,-0.144177 c -1.267603,-0.218777 -2.500724,-0.03641 -3.603398,0.533817 -0.328287,0.169841 -0.331762,0.169363 -0.331762,-0.08217 0,-0.680913 1.767782,-1.559225 3.724837,-1.850533 l 0.524516,-0.07855 -0.650607,-0.01292 c -1.117184,-0.02248 -2.44984,0.385536 -3.256132,0.996839 l -0.338997,0.257348 0.0677,-0.345198 c 0.03714,-0.189731 0.179661,-0.493524 0.316777,-0.674895 0.317292,-0.419715 1.720065,-1.130031 2.759521,-1.39733 0.522914,-0.134466 0.678463,-0.20428 0.463021,-0.208256 -0.418677,-0.0075 -1.818794,0.351223 -2.266528,0.580326 -0.190924,0.0977 -0.519378,0.312264 -0.729672,0.47749 -0.210289,0.16523 -0.402735,0.300757 -0.427364,0.300757 -0.02464,0 -0.009,-0.247887 0.03411,-0.550871 0.140404,-0.985827 0.09957,-2.016031 -0.112655,-2.845821 -0.175462,-0.686044 -0.290101,-1.023619 -0.3514,-1.02526 z m -1.945617,0.371037 c 0.140455,0.01975 0.22024,0.139784 0.08268,0.224792 -0.08868,0.05481 -0.103698,0.03799 -0.04703,-0.05374 0.05586,-0.0904 0.03525,-0.117178 -0.06253,-0.08165 -0.08016,0.02913 -0.133812,0.105605 -0.119373,0.170532 0.01443,0.06493 -0.06855,0.118339 -0.183968,0.118339 -0.115427,0 -0.209806,-0.04999 -0.209806,-0.111104 0,-0.0611 0.04772,-0.08164 0.10542,-0.04599 0.05771,0.03565 0.104386,0.0198 0.104386,-0.03514 0,-0.05494 0.07897,-0.130509 0.175183,-0.167432 0.05443,-0.02089 0.108211,-0.02518 0.15503,-0.0186 z m -13.707691,3.121256 c 0.756762,-0.0198 1.496509,0.0089 1.965772,0.0925 1.022657,0.182093 2.040649,0.51484 3.070097,1.004073 0.910379,0.432653 2.256193,1.239499 2.256193,1.352372 0,0.07271 0.06316,0.101374 -0.93276,-0.420646 -0.962576,-0.504537 -1.916396,-0.84441 -3.526916,-1.255737 -2.013248,-0.51419 -4.942105,-0.466224 -6.763412,0.110587 -0.430359,0.136299 -0.79765,0.232779 -0.815971,0.214458 -0.08112,-0.08112 1.852817,-0.73053 2.679423,-0.899687 0.536912,-0.109872 1.310818,-0.178134 2.067574,-0.19792 z m 1.678451,1.614372 c 1.639503,-5.03e-4 1.701832,0.0078 2.675289,0.35295 1.010621,0.358268 2.22104,0.891002 1.83658,0.808219 -0.115424,-0.02486 -0.540666,-0.144805 -0.944645,-0.266133 -1.253983,-0.376608 -2.80556,-0.56326 -4.039547,-0.486276 -2.424324,0.151255 -4.403474,0.858502 -6.506063,2.32544 -0.432831,0.301985 -1.093521,0.818937 -1.468644,1.148767 -0.473841,0.416622 -0.377834,0.297902 0.31471,-0.38964 1.632107,-1.62035 3.289275,-2.600826 5.403804,-3.196704 0.951394,-0.268093 1.206281,-0.296227 2.728516,-0.296623 z m 1.005623,1.203544 c 0.965864,0.0097 1.978751,0.168745 3.018421,0.47749 0.308598,0.09164 0.543587,0.183501 0.522965,0.204122 -0.02063,0.02062 -0.414734,-0.03472 -0.875915,-0.123507 -1.128127,-0.217174 -3.652523,-0.132717 -4.776453,0.160197 -1.301046,0.339078 -2.406856,0.815247 -3.428731,1.476396 -0.531213,0.34369 -1.378861,1.017134 -1.884123,1.497066 -0.575615,0.546783 -0.796519,0.714857 -0.591178,0.449585 0.54165,-0.699741 1.985478,-2.020786 2.736783,-2.504756 0.969095,-0.624263 1.385972,-0.824361 2.540931,-1.21698 0.852266,-0.289723 1.771437,-0.429326 2.7373,-0.419613 z m 9.680029,0.152445 c 0.197056,0.0068 0.384686,0.04367 0.646473,0.112655 0.346266,0.09126 0.668397,0.204953 0.716235,0.252698 0.04784,0.04775 0.113324,0.281511 0.145211,0.519348 0.0563,0.419739 0.04961,0.432005 -0.243913,0.433565 -0.519953,0.0025 -0.75335,0.11344 -0.879533,0.418063 -0.06707,0.161933 -0.224639,0.389953 -0.349849,0.506945 -0.187807,0.175478 -0.258347,0.190187 -0.403593,0.0832 -0.120838,-0.08901 -0.146313,-0.177241 -0.08062,-0.281119 0.271998,-0.429904 0.06468,-0.618337 -0.792717,-0.719336 -0.497984,-0.05866 -0.5263,-0.07854 -0.557072,-0.396359 -0.04781,-0.493844 0.241467,-0.722113 1.096574,-0.864029 0.299253,-0.04966 0.505747,-0.07242 0.702799,-0.06563 z m -7.401615,0.900721 c 0.326115,0.0051 0.593762,0.0275 0.75551,0.0708 0.312604,0.08369 0.195442,0.108533 -0.787033,0.165882 -1.422266,0.08301 -2.539445,0.291876 -3.788399,0.707967 -0.997165,0.332208 -2.586205,1.204928 -3.398759,1.867069 -0.259859,0.211758 -0.774168,0.691991 -1.142566,1.067119 -0.43346,0.44138 -0.556428,0.534138 -0.348816,0.262516 0.526398,-0.688668 1.608267,-1.766975 2.232422,-2.225187 0.835445,-0.613333 2.210571,-1.280831 3.245797,-1.575615 0.749056,-0.213281 2.253506,-0.35579 3.231844,-0.340547 z m -21.7428588,0.23306 c -0.00461,-0.0046 -0.070189,0.08016 -0.09095,0.0987 -0.00844,0.07893 -0.017603,0.157777 -0.025838,0.236678 -4.763e-4,0.0044 -5.761e-4,0.0066 -0.00103,0.01085 0.077812,-0.183793 0.1328125,-0.331241 0.1178223,-0.346232 z m 23.8626258,0.513147 c 0.384908,0.0068 0.31515,0.03332 -0.376204,0.141594 -1.220035,0.19106 -1.96261,0.427784 -3.03444,0.966349 -0.519406,0.260985 -1.180089,0.638311 -1.468644,0.839225 l -0.524516,0.365869 0.419096,-0.381372 c 0.510057,-0.463176 1.700188,-1.180268 2.413806,-1.454174 0.648038,-0.248739 1.93983,-0.488671 2.570902,-0.477491 z m -12.696899,2.817916 c 0.0054,0.0054 -0.02621,0.04804 -0.09147,0.131258 -0.0792,0.100995 -0.161677,0.183452 -0.183452,0.183452 -0.08636,0 -0.03113,-0.08616 0.143661,-0.223243 0.08321,-0.06526 0.125841,-0.09688 0.131258,-0.09147 z M 4.2431519,91.104517 c -0.00295,0.0039 -0.00634,0.0075 -0.0093,0.01137 -3.403e-4,0.0012 -0.00128,0.0052 -0.00155,0.0062 -0.00474,0.0176 -0.021139,0.06967 -0.014469,0.05271 0.039216,-0.09978 0.028349,-0.06731 0.025321,-0.07028 z m -0.1116211,0.141076 c -0.035342,0.0445 -0.069732,0.08965 -0.10542,0.133842 -0.032377,0.04009 0.065034,-0.08011 0.097152,-0.120406 -0.00345,0.0067 0.012123,-0.02008 0.00827,-0.01344 z M 33.1587,92.608301 c -0.557788,-0.03612 -1.12622,0.146241 -1.51412,0.559139 l -0.226859,0.241329 0.520898,0.06149 c 0.665631,0.07883 1.254853,0.380373 1.672249,0.855761 0.572532,0.652081 0.695732,0.980491 0.698149,1.858285 0.0024,0.920034 0.100301,0.933183 0.47439,0.06356 0.453508,-1.05422 0.387535,-2.133184 -0.176734,-2.888713 C 34.262919,92.89891 33.716484,92.64442 33.1587,92.608301 Z m -12.109339,7.00629 c -0.01914,0.02089 0.03248,0.150817 0.143144,0.348816 0.353216,0.631973 0.551247,1.221613 0.595312,1.774053 0.03358,0.42108 0.06517,0.46817 0.3514,0.51935 0.657254,0.11752 0.70595,0.0373 0.374654,-0.61909 -0.301338,-0.59696 -1.126353,-1.761033 -1.421618,-2.006075 -0.02263,-0.01879 -0.03651,-0.02399 -0.04289,-0.01705 z m -31.407385,12.816789 c -0.486838,0 -0.621535,0.0387 -0.709518,0.20309 -0.03985,0.0745 -0.06609,0.79167 -0.08423,1.85312 0.06193,-0.0138 0.118705,-0.0312 0.181384,-0.0444 0.379866,-0.60284 0.780432,-1.30049 1.1818402,-2.01176 z" /><path
         style="opacity:1;fill:none;stroke:#000000;stroke-width:2.265;stroke-dasharray:none;stroke-opacity:1"
         id="path32"
         d="M 8.188109,100.43193 A 23.556992,24.963381 0 0 1 4.7807858,74.570408 23.556992,24.963381 0 0 1 24.99553,59.638192 23.556992,24.963381 0 0 1 46.713926,71.973703" /></g><text
       xml:space="preserve"
       id="text38"
       style="font-size:74.6667px;letter-spacing:0.06px;word-spacing:0.02px;writing-mode:lr-tb;direction:ltr;baseline-shift:baseline;white-space:pre;shape-inside:url(#rect38);display:inline;opacity:1;fill:#000000;fill-opacity:1;stroke:#101010;stroke-width:1.9027;stroke-linecap:round;stroke-linejoin:round;stroke-dasharray:none;stroke-opacity:0.976261"
       transform="matrix(0.29775699,0,0,0.333965,-32.047964,-129.29907)"><tspan
         x="164.9082"
         y="319.47812"
         id="tspan2"><tspan
           style="font-family:Chalkboard;-inkscape-font-specification:'Chalkboard, Normal';baseline-shift:baseline"
           id="tspan1">Niger</tspan></tspan></text><text
       xml:space="preserve"
       id="text44"
       style="font-family:Chalkboard;font-size:66.6667px;letter-spacing:0.06px;word-spacing:0.02px;writing-mode:lr-tb;direction:ltr;baseline-shift:baseline;white-space:pre;shape-inside:url(#rect44);display:inline;opacity:1;fill:#000000;fill-opacity:1;stroke:#101010;stroke-width:0;stroke-linecap:round;stroke-linejoin:round;stroke-dasharray:none;stroke-opacity:0.976261"
       transform="matrix(0.29775699,0,0,0.333965,23.32855,-127.89268)"><tspan
         x="164.9082"
         y="319.47812"
         id="tspan4"><tspan
           style="fill:#1f61eb"
           id="tspan3">dev</tspan></tspan></text></g></svg>
